<svg width="428" height="41" viewBox="0 0 428 41" fill="none" xmlns="http://www.w3.org/2000/svg">
<path d="M0 8.15045C0 3.73295 3.58051 0.151515 7.99801 0.150846C16.3096 0.149588 24.6202 0.149588 32.9306 0.150847C37.3466 0.151516 40.9266 3.73066 40.9276 8.14669C40.9295 16.3803 40.9288 24.615 40.9283 32.8499C40.9281 37.2682 37.3463 40.8499 32.9281 40.8499H7.99999C3.58171 40.8499 0 37.2682 0 32.8499C0 24.6163 0 16.3829 0 8.15045ZM14.0466 11.681C10.9738 15.3813 10.5038 21.015 12.2177 25.4921C13.5734 29.0636 16.9628 31.3802 20.4864 31.8652C22.6901 32.1142 24.9696 32.1455 27.1375 31.6186C28.1556 31.3712 28.7213 30.3357 28.5351 29.3047C28.2956 27.9794 26.9276 27.2195 25.5976 27.4316C23.4834 27.7688 21.2853 27.5746 19.4728 26.3163C17.0843 24.6442 16.3552 21.2931 16.7453 18.4441C16.9724 16.2123 18.133 14.0179 20.0579 12.9766C21.7512 12.0529 23.7 11.8783 25.5674 12.2113C26.9166 12.4519 28.3617 11.7949 28.6808 10.4621C28.9367 9.3931 28.3959 8.2681 27.3288 8.00415C25.8172 7.6302 24.2387 7.56356 22.6895 7.63123C19.476 7.74655 16.2081 9.08967 14.0466 11.681Z" fill="#252525"/>
<path d="M56.8728 10.9428C60.88 7.33959 66.8221 6.89496 71.624 8.77306C71.2652 10.2634 70.8897 11.7503 70.5476 13.2442C67.8013 12.1593 64.5351 11.8428 61.9061 13.4399C59.7868 14.699 58.6803 17.2814 58.5797 19.7856C58.365 22.5814 59.2034 25.7257 61.5138 27.3406C64.1797 29.2081 67.6302 28.8488 70.5409 27.8849C70.8025 29.3503 71.0741 30.8123 71.3457 32.2778C68.3378 33.4516 65.0079 33.5512 61.8726 32.9643C58.365 32.292 55.1325 29.7807 53.8582 26.1882C52.0206 21.1052 52.8489 14.6066 56.8728 10.9428Z" fill="#252525"/>
<path d="M75.624 7.68498C77.4025 7.68498 79.181 7.68139 80.9595 7.68857C80.9595 14.2933 80.9629 20.8979 80.9595 27.5026C80.7292 28.3363 81.6642 27.977 82.0639 28.0632C84.8519 28.0452 87.6365 28.056 90.4246 28.056C90.428 29.6407 90.411 31.2254 90.4449 32.8065C85.5057 32.8784 80.5632 32.8209 75.624 32.8388C75.624 24.4554 75.624 16.0684 75.624 7.68498Z" fill="#252525"/>
<path d="M94.4449 7.68498C99.3231 7.68498 104.198 7.68139 109.076 7.68857C109.076 9.24452 109.076 10.7969 109.076 12.3528C105.976 12.36 102.88 12.3528 99.7804 12.36C99.7804 14.0345 99.7804 15.7091 99.7804 17.3836C102.711 17.4087 105.638 17.3441 108.568 17.4195C108.531 18.9611 108.541 20.4991 108.558 22.0406C105.631 22.0838 102.707 22.0442 99.7804 22.0622C99.7804 24.0961 99.7804 26.1299 99.7804 28.1638C103.043 28.1746 106.305 28.1602 109.564 28.171C109.564 29.7198 109.55 31.2649 109.577 32.8137C104.533 32.8748 99.4891 32.8209 94.4449 32.8388C94.4449 24.4554 94.4449 16.0684 94.4449 7.68498Z" fill="#252525"/>
<path d="M120.812 7.71661C123.19 7.68427 125.572 7.65912 127.949 7.72739C130.341 16.117 132.84 24.467 135.276 32.8422C133.342 32.8422 131.404 32.8422 129.47 32.8422C128.877 30.7008 128.224 28.581 127.689 26.4252C125.416 26.4036 123.068 26.2312 120.836 26.497C120.277 28.5881 119.712 30.6828 119.221 32.7955C117.341 32.8961 115.457 32.8207 113.577 32.8422C115.982 24.4634 118.435 16.1026 120.812 7.71661ZM124.169 11.9132C123.441 15.3265 122.554 18.6967 121.646 22.0633C123.38 22.0633 125.118 22.0669 126.859 22.0597C125.91 18.6931 124.945 15.3301 124.169 11.9132Z" fill="#252525"/>
<path d="M139.288 8.17986C142.415 7.74727 145.584 7.54706 148.735 7.78659C150.946 7.99395 153.342 8.64106 154.815 10.5359C156.908 13.3638 156.5 17.9758 153.743 20.1674C153.278 20.6607 152.473 20.7823 152.129 21.3579C153.413 22.1051 154.316 23.3921 154.768 24.858C155.617 27.5644 156.103 30.3923 157.033 33.0737C155.183 33.0594 153.329 33.1023 151.479 33.0486C150.744 30.9608 150.282 28.7871 149.77 26.6312C149.49 25.4622 149.042 24.1429 147.929 23.6031C146.878 23.1276 145.702 23.2634 144.589 23.2384C144.586 26.5168 144.586 29.7917 144.589 33.0701C142.817 33.0772 141.047 33.0737 139.278 33.0737C139.284 24.7757 139.264 16.4778 139.288 8.17986ZM144.589 12.0446C144.583 14.4042 144.586 16.7674 144.586 19.127C146.19 19.0984 147.96 19.3558 149.382 18.3798C151.317 17.1249 151.33 13.5569 149.278 12.4271C147.828 11.6442 146.14 11.8766 144.589 12.0446Z" fill="#252525"/>
<path d="M172.996 10.9254C177.003 7.3364 182.932 6.89889 187.727 8.7734C187.372 10.2602 186.989 11.7399 186.661 13.2374C183.908 12.1738 180.652 11.8395 178.019 13.4294C175.904 14.685 174.79 17.2603 174.683 19.7537C174.465 22.5601 175.297 25.7151 177.61 27.3371C180.276 29.2045 183.73 28.8524 186.641 27.8849C186.906 29.3503 187.177 30.8122 187.449 32.2777C184.444 33.4515 181.125 33.5511 177.993 32.9678C174.478 32.2991 171.236 29.7843 169.962 26.1847C168.121 21.0947 168.959 14.5855 172.996 10.9254Z" fill="#252525"/>
<path d="M191.727 7.68498C193.506 7.68498 195.284 7.68139 197.063 7.68857C197.063 10.9192 197.063 14.1535 197.063 17.3841C200.027 17.3913 202.992 17.3877 205.956 17.3877C205.956 14.1535 205.953 10.9192 205.956 7.68498C207.735 7.68498 209.513 7.68139 211.295 7.68857C211.288 16.0725 211.292 24.4528 211.295 32.8367C209.513 32.8439 207.735 32.8403 205.956 32.8403C205.953 29.3365 205.959 25.8327 205.953 22.329C202.992 22.329 200.027 22.329 197.066 22.3326C197.06 25.8327 197.063 29.3365 197.063 32.8367C195.284 32.8403 193.506 32.8403 191.727 32.8403C191.727 24.4564 191.727 16.0689 191.727 7.68498Z" fill="#252525"/>
<path d="M224.205 7.9378C227.325 7.31141 230.768 7.80611 233.358 9.85612C235.985 11.8954 237.421 15.2908 237.707 18.6683C237.955 21.8038 237.522 25.103 235.995 27.8435C233.227 32.9898 226.584 34.5202 221.642 32.2958C218.471 30.8758 216.314 27.5943 215.639 24.078C214.67 19.3053 215.706 13.7533 219.296 10.454C220.682 9.17278 222.4 8.30794 224.205 7.9378ZM224.809 12.4684C223.272 13.0699 222.195 14.5469 221.632 16.1307C220.857 18.3231 220.759 20.7503 221.135 23.0423C221.461 24.893 222.242 26.7793 223.735 27.8897C225.554 29.2706 228.292 29.1034 229.892 27.4164C231.526 25.7152 232.07 23.1883 232.144 20.8393C232.197 18.3337 231.694 15.6289 230.037 13.7426C228.745 12.2407 226.587 11.7531 224.809 12.4684Z" fill="#252525"/>
<path d="M241.772 7.68588C243.551 7.68588 245.333 7.67869 247.111 7.69307C247.104 16.0733 247.108 24.4535 247.111 32.8373C245.329 32.8444 243.551 32.8409 241.772 32.8409C241.772 24.4571 241.772 16.0697 241.772 7.68588Z" fill="#252525"/>
<path d="M255.068 10.9285C259.075 7.33951 265.01 6.89489 269.809 8.77653C269.446 10.2669 269.071 11.7502 268.729 13.2441C265.983 12.1592 262.72 11.8426 260.094 13.4362C257.972 14.6953 256.862 17.2812 256.758 19.7818C256.546 22.5847 257.388 25.7326 259.702 27.3439C262.368 29.2078 265.811 28.8485 268.722 27.8846C268.98 29.35 269.255 30.812 269.527 32.2774C266.522 33.4512 263.199 33.5508 260.071 32.9675C256.56 32.2988 253.324 29.7911 252.046 26.2057C250.199 21.1121 251.03 14.5957 255.068 10.9285Z" fill="#252525"/>
<path d="M273.809 7.68498C278.683 7.68498 283.562 7.68139 288.44 7.68857C288.44 9.24095 288.44 10.7969 288.44 12.3529C285.34 12.3601 282.241 12.3529 279.144 12.3601C279.144 14.0346 279.144 15.7092 279.144 17.3838C282.068 17.3981 284.995 17.3694 287.918 17.4017C287.905 18.9505 287.905 20.4993 287.918 22.0445C284.995 22.0768 282.068 22.0481 279.144 22.0589C279.144 24.0964 279.144 26.1303 279.144 28.1642C282.41 28.1822 285.672 28.1426 288.938 28.1858C288.921 29.7309 288.918 31.2725 288.941 32.8177C283.897 32.8681 278.853 32.8249 273.809 32.8393C273.809 24.4557 273.809 16.0686 273.809 7.68498Z" fill="#252525"/>
<path d="M292.969 8.17233C295.861 7.75758 298.794 7.58596 301.713 7.7397C304.039 7.90775 306.54 8.60139 308.117 10.55C310.571 13.6106 310.318 18.6806 307.675 21.5231C305.195 24.0223 301.517 24.4263 298.254 24.1332C298.254 27.1115 298.254 30.0899 298.254 33.0682C296.485 33.0754 294.715 33.0718 292.946 33.0718C292.959 24.7732 292.915 16.471 292.969 8.17233ZM298.244 12.1983C298.329 14.6975 298.126 17.229 298.339 19.7067C299.872 19.957 301.588 19.9499 302.936 19.0167C304.905 17.6687 305.08 14.0611 303.058 12.6846C301.622 11.7478 299.835 11.9087 298.244 12.1983Z" fill="#252525"/>
<path d="M321.051 7.72001C323.409 7.65893 325.766 7.7236 328.127 7.68408C330.62 16.0592 333.045 24.4594 335.515 32.8453C333.577 32.8453 331.643 32.8453 329.709 32.8453C329.106 30.6968 328.473 28.5626 327.91 26.4068C325.627 26.3601 323.344 26.3565 321.065 26.4104C320.567 28.5554 319.94 30.6644 319.442 32.813C317.569 32.8813 315.693 32.831 313.816 32.8453C316.221 24.4666 318.674 16.1059 321.051 7.72001ZM321.881 22.0666C323.619 22.0666 325.356 22.0701 327.097 22.063C326.163 18.7 325.167 15.3514 324.428 11.9309C323.646 15.3262 322.809 18.7072 321.881 22.0666Z" fill="#252525"/>
<path d="M339.515 7.69009C341.625 7.71525 343.735 7.63619 345.842 7.73681C348.881 13.6334 352.316 19.3251 354.687 25.581C354.108 19.6377 354.27 13.6585 354.25 7.69369C355.886 7.6865 357.522 7.69009 359.162 7.69009C359.162 16.0732 359.162 24.4599 359.162 32.843C357.272 32.8322 355.385 32.8681 353.498 32.8178C350.368 26.6841 346.95 20.7013 344.267 14.3233C344.409 20.4929 344.453 26.6662 344.426 32.8394C342.787 32.8466 341.151 32.843 339.515 32.843C339.515 24.4599 339.515 16.0732 339.515 7.69009Z" fill="#252525"/>
<path d="M363.162 7.70438C369.243 7.66485 375.324 7.6972 381.402 7.68642C381.402 9.28195 381.405 10.8739 381.402 12.4694C379.237 12.4694 377.076 12.4766 374.914 12.4622C374.89 19.2576 374.911 26.0494 374.904 32.8412C373.122 32.8412 371.343 32.8448 369.565 32.8376C369.582 26.0602 369.541 19.2828 369.589 12.5089C367.458 12.4299 365.327 12.4766 363.199 12.4838C363.145 10.8919 363.186 9.29632 363.162 7.70438Z" fill="#252525"/>
<path d="M385.422 8.19669C389.449 7.7428 393.627 7.25316 397.602 8.34323C400.099 8.99727 402.121 11.3418 402.218 14.1188C402.643 17.1817 400.773 20.1445 398.138 21.2954C399.961 22.2675 400.864 24.3261 401.319 26.3347C401.915 28.5899 402.397 30.8844 403.155 33.0895C401.302 33.0752 399.452 33.1181 397.602 33.0609C396.875 30.9844 396.406 28.8222 395.901 26.6778C395.618 25.4948 395.17 24.1581 394.044 23.6149C392.99 23.1503 391.821 23.2825 390.715 23.2575C390.712 26.5312 390.705 29.805 390.719 33.0788C388.947 33.1002 387.174 33.0859 385.405 33.0895C385.416 24.7907 385.385 16.4955 385.422 8.19669ZM390.712 12.0709C390.712 14.4297 390.709 16.7886 390.712 19.1474C392.313 19.1188 394.081 19.3761 395.503 18.404C397.434 17.1531 397.457 13.597 395.416 12.4569C393.963 11.667 392.269 11.8958 390.712 12.0709Z" fill="#252525"/>
<path d="M407.155 7.68768C409.208 7.68408 411.264 7.69127 413.321 7.68408C414.774 11.2812 416.248 14.871 417.576 18.5256C418.948 14.8998 420.364 11.2955 421.793 7.69486C423.819 7.68049 425.841 7.69127 427.871 7.68768C425.33 12.4418 422.789 17.1924 420.252 21.9466C419.954 22.403 420.021 22.9635 420.011 23.481C420.028 26.6037 420.018 29.7229 420.021 32.842C418.24 32.842 416.461 32.8456 414.682 32.8384C414.689 29.7229 414.676 26.6109 414.693 23.499C414.703 22.9564 414.662 22.403 414.378 21.9358C411.959 17.1924 409.564 12.4383 407.155 7.68768Z" fill="#252525"/>
</svg>
